<?xml version="1.0" encoding="UTF-8" standalone="no"?>
<svg
   xmlns:dc="http://purl.org/dc/elements/1.1/"
   xmlns:cc="http://creativecommons.org/ns#"
   xmlns:rdf="http://www.w3.org/1999/02/22-rdf-syntax-ns#"
   xmlns:svg="http://www.w3.org/2000/svg"
   xmlns="http://www.w3.org/2000/svg"
   xmlns:sodipodi="http://sodipodi.sourceforge.net/DTD/sodipodi-0.dtd"
   xmlns:inkscape="http://www.inkscape.org/namespaces/inkscape"
   width="48"
   height="48"
   viewBox="0 0 12.7 12.7"
   version="1.1"
   id="svg2723"
   inkscape:version="1.0.2 (e86c8708, 2021-01-15)"
   sodipodi:docname="editar.svg">
  <defs
     id="defs2717" />
  <sodipodi:namedview
     id="base"
     pagecolor="#000000"
     bordercolor="#666666"
     borderopacity="1.0"
     inkscape:pageopacity="0"
     inkscape:pageshadow="2"
     inkscape:zoom="5.6"
     inkscape:cx="8.7865645"
     inkscape:cy="32.895279"
     inkscape:document-units="mm"
     inkscape:current-layer="layer1"
     inkscape:document-rotation="0"
     showgrid="false"
     inkscape:window-width="1579"
     inkscape:window-height="954"
     inkscape:window-x="67"
     inkscape:window-y="22"
     inkscape:window-maximized="0"
     units="px" />
  <metadata
     id="metadata2720">
    <rdf:RDF>
      <cc:Work
         rdf:about="">
        <dc:format>image/svg+xml</dc:format>
        <dc:type
           rdf:resource="http://purl.org/dc/dcmitype/StillImage" />
        <dc:title />
      </cc:Work>
    </rdf:RDF>
  </metadata>
  <g
     inkscape:label="Capa 1"
     inkscape:groupmode="layer"
     id="layer1">
    <g
       id="draw-freehand"
       transform="matrix(0.5047557,0,0,0.5047557,1965.0853,-648.7702)"
       inkscape:label="#draw_freehand">
      <rect
         y="1285.8582"
         x="-3892.5986"
         height="24"
         width="24"
         id="rect6344"
         style="color:#000000;display:inline;overflow:visible;visibility:visible;fill:none;stroke:none;stroke-width:15;marker:none;enable-background:accumulate" />
      <path
         style="color:#000000;font-style:normal;font-variant:normal;font-weight:normal;font-stretch:normal;font-size:medium;line-height:normal;font-family:Sans;-inkscape-font-specification:Sans;text-indent:0;text-align:start;text-decoration:none;text-decoration-line:none;letter-spacing:normal;word-spacing:normal;text-transform:none;writing-mode:lr-tb;direction:ltr;baseline-shift:baseline;text-anchor:start;display:inline;overflow:visible;visibility:visible;fill:#ffffff;fill-opacity:1;stroke:none;stroke-width:1;marker:none;enable-background:accumulate"
         d="m -3877.6611,1287.3123 c -0.3351,0.031 -0.593,0.1258 -0.7187,0.3438 l -1.2188,2.0937 -0.4687,0.8438 -0.031,0.031 0.8438,0.4688 0.875,0.5 0.8437,0.5 0.9063,0.5312 0.8437,0.4688 v -0.031 l 0.5,-0.8125 1.1875,-2.0937 c 0.3354,-0.581 -0.301,-1.589 -1.5,-2.2813 -0.7494,-0.4326 -1.504,-0.6145 -2.0625,-0.5625 z m 0.4688,1.125 c 0.3021,0.017 0.6674,0.1337 1.0312,0.3438 0.7274,0.4199 1.1408,1.0537 0.9375,1.4062 l -0.9062,1.5625 -2.5938,-1.5 0.9063,-1.5625 c 0.1016,-0.1762 0.3228,-0.2667 0.625,-0.25 z m -3.4063,3.0625 -5.1875,8.9375 c -0.046,1.4348 -0.092,2.8773 -0.125,4.3125 v 0.875 l 0.7813,-0.4375 c 1.2181,-0.742 2.4312,-1.4895 3.6562,-2.2187 l 5.1875,-9 -0.8437,-0.4688 -5.0938,8.7813 -1.3125,0.7812 -1.3437,-0.7812 0.062,-1.5313 5.0625,-8.7812 -0.8438,-0.4688 z m 1.7188,0.9688 -4.6563,8.0625 0.8438,0.5 4.6562,-8.0625 z m 1.625,13.1562 c -1.292,0.062 -2.5646,0.3595 -3.5938,0.9375 -1.9138,1.0748 -5.2425,1.0748 -7.1562,0 -0.3022,-0.1697 -0.5495,-0.3362 -0.75,-0.5312 l -0.7188,0.7187 c 0.2728,0.2654 0.6016,0.4812 0.9688,0.6875 2.3161,1.3007 5.8401,1.3007 8.1562,0 0.8504,-0.4776 1.9919,-0.7569 3.1563,-0.8125 l -0.062,-1 z m 1.5312,0.031 -0.125,1 c 0.532,0.054 1.0527,0.1656 1.5313,0.3125 l 0.3125,-0.9688 c -0.5479,-0.1681 -1.1266,-0.2835 -1.7188,-0.3437 z m 3.0313,0.9062 -0.4688,0.875 c 0.3021,0.1697 0.5495,0.3675 0.75,0.5625 l 0.6875,-0.7187 c -0.2728,-0.2654 -0.6016,-0.5126 -0.9687,-0.7188 z"
         id="path3984"
         inkscape:connector-curvature="0" />
    </g>
  </g>
</svg>
